<?xml version="1.0" encoding="UTF-8"?>
<svg xmlns="http://www.w3.org/2000/svg" xmlns:xlink="http://www.w3.org/1999/xlink" viewBox="0 -25 48 69" width="24px" height="24px">
<g id="surface69837268">
<path style=" stroke:none;fill-rule:nonzero;fill:rgb(100%,100%,100%);fill-opacity:1;" d="M 5.828125 23.617188 C 18.398438 18.085938 34.660156 11.347656 36.90625 10.414062 C 42.796875 7.972656 44.601562 8.4375 43.703125 13.847656 C 43.054688 17.734375 41.1875 30.601562 39.699219 38.613281 C 38.816406 43.363281 36.835938 43.925781 33.722656 41.871094 C 32.222656 40.882812 24.660156 35.882812 23.019531 34.707031 C 21.523438 33.636719 19.457031 32.351562 22.046875 29.816406 C 22.96875 28.914062 29.015625 23.140625 33.722656 18.648438 C 34.339844 18.058594 33.566406 17.089844 32.851562 17.5625 C 26.507812 21.773438 17.707031 27.613281 16.585938 28.375 C 14.894531 29.523438 13.269531 30.050781 10.351562 29.214844 C 8.148438 28.582031 5.996094 27.824219 5.15625 27.539062 C 1.929688 26.429688 2.695312 24.996094 5.828125 23.617188 Z M 5.828125 23.617188 "/>
</g>
</svg>
